<?xml version="1.0" encoding="UTF-8"?>
<svg id="_레이어_1" data-name="레이어 1" xmlns="http://www.w3.org/2000/svg" version="1.1" viewBox="0 0 300 300">
  <defs>
    <style>
      .cls-1 {
        fill: #222;
        stroke-width: 0px;
      }
    </style>
  </defs>
  <path class="cls-1" d="M16.8,138.5c-1.7,0-3.3-.7-4.4-2.1-2-2.4-1.6-6,.8-8L146.8,20.5c2.1-1.7,5.1-1.7,7.2,0l131.6,108c2.4,2,2.8,5.6.8,8-2,2.4-5.6,2.8-8,.8L150.3,32.2,20.3,137.2c-1,.8-2.3,1.3-3.6,1.3Z"/>
  <path class="cls-1" d="M124.1,268.4H40.5c-3.1,0-5.7-2.5-5.7-5.7v-109.6c0-3.1,2.5-5.7,5.7-5.7s5.7,2.5,5.7,5.7v103.9h72.2v-55.3c0-3.1,2.5-5.7,5.7-5.7h54.2c3.1,0,5.7,2.5,5.7,5.7v55h70v-103.6c0-3.1,2.5-5.7,5.7-5.7s5.7,2.5,5.7,5.7v109.3c0,3.1-2.5,5.7-5.7,5.7h-81.3c-3.1,0-5.7-2.5-5.7-5.7v-55h-42.9v55.3c0,3.1-2.5,5.7-5.7,5.7Z"/>
</svg>